<?xml version="1.0" standalone="no"?>
<!DOCTYPE svg PUBLIC "-//W3C//DTD SVG 20010904//EN"
 "http://www.w3.org/TR/2001/REC-SVG-20010904/DTD/svg10.dtd">
<svg version="1.0" xmlns="http://www.w3.org/2000/svg"
 width="512.000000pt" height="512.000000pt" viewBox="0 0 512.000000 512.000000"
 preserveAspectRatio="xMidYMid meet">

<g transform="translate(0.000000,512.000000) scale(0.100000,-0.100000)"
fill="#000000" stroke="none">
<path d="M405 3953 c-132 -12 -275 -104 -338 -217 -66 -118 -61 -37 -65 -1144
-2 -666 1 -1022 8 -1060 34 -183 184 -332 366 -362 33 -6 255 -10 494 -10
l435 0 630 -526 c347 -290 653 -541 681 -559 236 -154 565 -37 656 233 l23 67
3 1118 3 1117 -996 0 -995 0 0 675 0 675 -432 -2 c-238 -1 -451 -3 -473 -5z"/>
<path d="M3724 3349 c-41 -12 -91 -69 -99 -113 -14 -71 4 -94 273 -367 l255
-260 -245 -247 c-135 -136 -255 -263 -267 -282 -51 -84 0 -197 98 -216 80 -16
88 -10 369 269 l262 261 263 -261 c280 -279 288 -285 368 -269 98 19 149 132
98 216 -12 19 -132 146 -267 282 l-245 247 255 260 c269 273 287 296 273 367
-9 48 -58 101 -106 114 -78 21 -91 12 -369 -265 -142 -140 -263 -255 -270
-255 -7 0 -128 115 -270 255 -284 282 -292 288 -376 264z"/>
</g>
</svg>
